<svg width="500" height="500" viewBox="0 0 500 500" fill="none" xmlns="http://www.w3.org/2000/svg">
<rect width="500" height="500" fill="#F5EDDA"/>
<path d="M195.6 154.1V347.9C195.6 350.1 194.8 352 193.2 353.6C191.6 355.2 189.7 356 187.5 356H128.7C126.5 356 124.6 355.2 123 353.6C121.4 352 120.6 350.1 120.6 347.9V226.7L87 252.5C85.4 253.7 83.6 254.3 81.6 254.3C79.8 254.3 77.8 252.9 75.6 250.1L49.2 215.9C48.4 214.5 48 213.2 48 212C48 208.4 49.3 205.8 51.9 204.2L124.2 148.1C126.2 146.7 128.4 146 130.8 146H187.5C189.7 146 191.6 146.8 193.2 148.4C194.8 150 195.6 151.9 195.6 154.1ZM229.057 225.2H244.357C244.357 197.2 253.457 176.5 271.657 163.1C289.857 149.5 313.757 142.7 343.357 142.7C372.957 142.7 397.457 149.2 416.857 162.2C436.257 175.2 445.957 193.3 445.957 216.5C445.957 218.3 445.257 219.9 443.857 221.3C442.657 222.5 441.157 223.1 439.357 223.1H378.157C372.357 223.1 368.257 220.2 365.857 214.4C362.257 205.6 355.157 201.2 344.557 201.2C329.757 201.2 322.357 209.2 322.357 225.2H350.557C352.757 225.2 354.657 226 356.257 227.6C357.857 229.2 358.657 231.1 358.657 233.3V268.1C358.657 270.3 357.857 272.2 356.257 273.8C354.657 275.4 352.757 276.2 350.557 276.2H322.357C322.357 292.4 329.757 300.5 344.557 300.5C355.157 300.5 362.257 296.1 365.857 287.3C368.257 281.5 372.357 278.6 378.157 278.6H439.357C441.157 278.6 442.657 279.3 443.857 280.7C445.257 281.9 445.957 283.4 445.957 285.2C445.957 308.4 436.257 326.5 416.857 339.5C397.457 352.5 372.957 359 343.357 359C313.757 359 289.857 352.3 271.657 338.9C253.457 325.3 244.357 304.5 244.357 276.5V276.2H229.057C226.857 276.2 224.957 275.4 223.357 273.8C221.757 272.2 220.957 270.3 220.957 268.1V233.3C220.957 231.1 221.757 229.2 223.357 227.6C224.957 226 226.857 225.2 229.057 225.2Z" fill="#D62400"/>
</svg>
